<svg width="130" height="130" viewBox="0 0 130 130" fill="none" xmlns="http://www.w3.org/2000/svg">
<g clip-path="url(#clip0_4568_27585)">
<mask id="mask0_4568_27585" style="mask-type:alpha" maskUnits="userSpaceOnUse" x="15" y="15" width="100" height="100">
<path d="M115 15H15V115H115V15Z" fill="white"/>
</mask>
<g mask="url(#mask0_4568_27585)">
<path d="M115 15H15V115H115V15Z" fill="#B68655"/>
<path d="M115 15H15V115H115V15Z" fill="#FF9486"/>
<path fill-rule="evenodd" clip-rule="evenodd" d="M29.2858 43.5714H50.7143V57.8571H29.2858V43.5714ZM79.2858 43.5714H100.714V57.8571H79.2858V43.5714Z" fill="white"/>
<path fill-rule="evenodd" clip-rule="evenodd" d="M36.4286 50.7142H43.5714V57.8571H36.4286V50.7142ZM86.4286 57.8571V50.7142H93.5714V57.8571H86.4286Z" fill="#323232"/>
<path fill-rule="evenodd" clip-rule="evenodd" d="M22.1428 43.5715V29.2858H43.5714V36.4286H29.2857V43.5715H22.1428ZM107.857 29.2858V43.5715H100.714V36.4286H86.4285V29.2858H107.857Z" fill="#611C17"/>
<path fill-rule="evenodd" clip-rule="evenodd" d="M22.1428 43.5715V29.2858H43.5714V36.4286H29.2857V43.5715H22.1428ZM107.857 29.2858V43.5715H100.714V36.4286H86.4285V29.2858H107.857Z" fill="black" fill-opacity="0.1"/>
<path d="M43.5714 86.4286V93.5714H50.7143V100.714H79.2857V93.5714H50.7143V86.4286H43.5714Z" fill="black" fill-opacity="0.35"/>
</g>
</g>
<rect x="7.5" y="7.5" width="115" height="115" stroke="#B68655" stroke-width="15"/>
<rect x="7.5" y="7.5" width="115" height="115" stroke="#FF9486" stroke-width="15"/>
<defs>
<clipPath id="clip0_4568_27585">
<rect x="15" y="15" width="100" height="100" fill="white"/>
</clipPath>
</defs>
</svg>
