<svg width="71" height="67" viewBox="0 0 71 67" fill="none" xmlns="http://www.w3.org/2000/svg">
<g id="Group">
<path id="Vector" d="M52.7416 31.3476C51.9589 30.2577 51.6281 28.8902 51.8644 27.513L52.3352 24.7676L50.3409 22.8236C50.3105 22.7941 50.2831 22.7626 50.2536 22.7324C34.9918 35.464 33.2559 55.8724 33.4222 65.8913C33.4284 66.2563 33.7087 66.5581 34.0723 66.5919C34.4358 66.6257 34.7666 66.3806 34.8401 66.0229C39.05 45.5195 47.0118 35.8289 52.7416 31.3476Z" fill="#7B99E6"/>
<path id="Vector_2" d="M22.8128 17.6565L18.2072 18.6875L16.4455 23.066C16.4135 23.1455 16.3774 23.2225 16.3418 23.2997C23.5299 33.4687 27.2735 54.2304 28.7701 64.6886C28.8052 64.9339 29.0238 65.1103 29.271 65.0936C29.5182 65.0769 29.7108 64.8725 29.7128 64.6249C29.8949 42.0674 26.4441 27.0166 22.9613 17.6182C22.9117 17.6305 22.8631 17.6453 22.8128 17.6565Z" fill="#B70B91"/>
<path id="Vector_3" d="M54.3088 54.1808L53.6561 53.2831C53.128 52.5566 52.8132 51.7294 52.712 50.8799C47.6882 52.2197 40.1309 55.6481 37.7163 64.3197C37.5859 64.788 37.8129 65.2821 38.2531 65.4881C38.6936 65.6942 39.2185 65.5521 39.4945 65.1519C42.1293 61.3308 46.8655 56.2848 53.9289 55.2602C53.9328 55.2492 53.9355 55.2381 53.9394 55.2269L54.3088 54.1808Z" fill="#ECA240"/>
<path id="Vector_4" d="M18.3839 45.4238C17.9245 46.0664 17.3134 46.6065 16.5783 46.9889L15.594 47.5008L15.4576 48.6019C15.4165 48.9336 15.3425 49.2545 15.2422 49.5636C19.4603 54.3282 22.5687 60.873 24.4472 65.5722C24.573 65.8872 24.9168 66.056 25.2435 65.9642C25.5699 65.8721 25.7749 65.5489 25.718 65.2142C24.0547 55.3929 21.1455 49.2422 18.3839 45.4238Z" fill="#1D55E4"/>
<path id="Vector_5" d="M57.2439 23.1723L56.367 28.285C56.332 28.4883 56.4156 28.6939 56.5826 28.8152C56.6769 28.8837 56.7889 28.9187 56.9013 28.9187C56.9876 28.9187 57.0742 28.8981 57.1535 28.8563L61.7451 26.4424L66.3365 28.8563C66.4158 28.8981 66.5024 28.9187 66.5887 28.9187C66.7011 28.9187 66.813 28.8837 66.9074 28.8152C67.0744 28.6939 67.158 28.4883 67.123 28.285L66.2461 23.1723L69.9607 19.5513C70.1085 19.4071 70.1617 19.1917 70.098 18.9955C70.0343 18.7993 69.8645 18.6562 69.6603 18.6266L64.5268 17.8807L62.231 13.229C62.1396 13.0439 61.9512 12.9268 61.7449 12.9268C61.5386 12.9268 61.3501 13.0439 61.2588 13.229L58.9629 17.8807L53.8294 18.6266C53.6252 18.6562 53.4555 18.7993 53.3918 18.9955C53.328 19.1917 53.3812 19.4071 53.5288 19.5513L57.2439 23.1723Z" fill="#1D55E4"/>
<path id="Vector_6" d="M21.8143 13.1979C22.0158 13.1529 22.1741 12.9973 22.2227 12.7967C22.2714 12.5962 22.2022 12.3855 22.0439 12.253L16.5819 7.68311L17.2501 0.593029C17.2695 0.387662 17.1703 0.188919 16.9949 0.0806391C16.9076 0.0269558 16.8089 0 16.7105 0C16.6104 0 16.5106 0.0276411 16.4227 0.082695L10.3884 3.8652L3.85162 1.03894C3.7824 1.00902 3.7093 0.994397 3.63666 0.994397C3.51033 0.994397 3.38538 1.03849 3.28555 1.12324C3.12815 1.25687 3.06054 1.46818 3.11079 1.66829L4.84351 8.57585L0.135367 13.919C-0.0010114 14.0739 -0.0377902 14.2928 0.040793 14.4835C0.119376 14.6745 0.299387 14.8043 0.505211 14.8182L7.61014 15.305L11.2371 21.4338C11.3351 21.5994 11.513 21.6999 11.7035 21.6999C11.7173 21.6999 11.731 21.6995 11.7449 21.6983C11.9507 21.6828 12.1296 21.5517 12.2068 21.3602L14.8652 14.7535L21.8143 13.1979Z" fill="#00E76A"/>
<path id="Vector_7" d="M69.0465 52.0347C69.0168 51.8304 68.8735 51.6609 68.6773 51.5972L65.3375 50.5133L64.3372 47.1474C64.2785 46.9496 64.1124 46.8023 63.9091 46.7675C63.8785 46.7623 63.8479 46.7598 63.8175 46.7598C63.6457 46.7598 63.4819 46.8415 63.3789 46.9834L61.3158 49.825L57.8056 49.7363C57.8011 49.7363 57.7965 49.7361 57.7919 49.7361C57.5909 49.7361 57.4059 49.8476 57.3122 50.026C57.2163 50.2087 57.2323 50.4301 57.3536 50.5969L59.4184 53.4371L58.2493 56.7483C58.1805 56.9429 58.2283 57.1595 58.3724 57.3073C58.4761 57.4135 58.6166 57.4708 58.7605 57.4708C58.8165 57.4708 58.8731 57.4622 58.9282 57.4443L62.2675 56.3581L65.0554 58.4931C65.1518 58.5669 65.2681 58.6048 65.385 58.6048C65.4668 58.6048 65.5488 58.5863 65.6251 58.5488C65.8102 58.4575 65.9274 58.269 65.9271 58.0625L65.926 54.5512L68.818 52.5596C68.9875 52.4424 69.0762 52.2389 69.0465 52.0347Z" fill="#3EA592"/>
<path id="Vector_8" d="M14.4704 42.9351C14.6533 42.8398 14.7666 42.6491 14.7623 42.4426C14.758 42.2363 14.6369 42.0503 14.4498 41.9629L11.2688 40.4757L10.6906 37.0123C10.6566 36.8088 10.5101 36.6423 10.3125 36.5826C10.2609 36.5671 10.2081 36.5596 10.156 36.5596C10.0082 36.5596 9.86387 36.6201 9.75993 36.7316L7.36269 39.2974L3.88995 38.777C3.863 38.7729 3.83627 38.7711 3.80954 38.7711C3.63364 38.7711 3.46665 38.8568 3.36454 39.0039C3.24667 39.1734 3.23547 39.395 3.3353 39.5757L5.03466 42.6486L3.46665 45.7906C3.37459 45.9752 3.39515 46.1961 3.51988 46.3605C3.62359 46.4971 3.78396 46.5748 3.95163 46.5748C3.9859 46.5748 4.02039 46.5716 4.05466 46.565L7.50227 45.8984L10.006 48.3605C10.109 48.462 10.2463 48.5161 10.3863 48.5161C10.4462 48.5161 10.5062 48.5063 10.5645 48.4859C10.7594 48.4181 10.8987 48.2454 10.9241 48.0407L11.3556 44.5559L14.4704 42.9351Z" fill="#D11010"/>
<path id="Vector_9" d="M37.5155 13.5459L37.0941 12.5195L36.0094 12.2849C35.1996 12.1097 34.4682 11.7497 33.8559 11.251C32.1081 15.8997 30.8844 23.0903 32.1714 33.9058C32.2406 34.4878 33.0897 34.481 33.145 33.8976C33.6209 28.8806 34.8471 20.7682 37.9779 14.4185C37.799 14.1464 37.6428 13.8556 37.5155 13.5459Z" fill="#602278"/>
<path id="Vector_10" d="M39.0605 1.11036L39.415 4.60388L36.7382 6.8764C36.5808 7.01004 36.5129 7.22111 36.5632 7.42146C36.6132 7.62157 36.7727 7.77599 36.9744 7.81963L40.4065 8.56205L41.7406 11.8102C41.8189 12.0012 41.9989 12.131 42.2047 12.1451C42.2173 12.146 42.2296 12.1465 42.242 12.1465C42.4339 12.1465 42.613 12.0446 42.7105 11.8772L44.4773 8.84258L47.9788 8.57759C48.1846 8.56205 48.3637 8.43093 48.4407 8.2395C48.5177 8.04807 48.4795 7.82945 48.342 7.67571L46.0019 5.05779L46.8318 1.64582C46.8807 1.44525 46.8112 1.2344 46.6529 1.1019C46.5535 1.01875 46.4297 0.975348 46.3048 0.975348C46.2308 0.975348 46.1563 0.990425 46.0862 1.02149L42.8732 2.43805L39.8845 0.594311C39.7972 0.540399 39.6985 0.513672 39.5998 0.513672C39.5 0.513672 39.4 0.541313 39.312 0.596367C39.1373 0.70579 39.0397 0.904989 39.0605 1.11036Z" fill="#F6FB00"/>
</g>
</svg>
