<svg width="131" height="131" viewBox="0 0 131 131" fill="none" xmlns="http://www.w3.org/2000/svg">
<g id="gift-svgrepo-com-2 1">
<rect id="Rectangle 1840" x="23.3887" y="46.7871" width="84.2143" height="60.8214" fill="#3EA592"/>
<path id="Vector" d="M106.44 42.3008H98.7984C100.982 39.6808 102.346 36.4058 102.346 32.7487C102.346 24.452 95.6326 17.7383 87.3359 17.7383C78.1659 17.7383 70.0876 22.5962 65.5026 29.8012C60.9176 22.5962 52.8393 17.7383 43.6693 17.7383C35.3726 17.7383 28.6589 24.452 28.6589 32.7487C28.6589 36.4058 30.0234 39.6808 32.2068 42.3008H24.5651C20.7989 42.3008 17.7422 45.3574 17.7422 49.1237V62.7695C17.7422 66.0445 20.0893 68.6645 23.2005 69.3195V106.436C23.2005 110.202 26.2572 113.259 30.0234 113.259H100.982C104.748 113.259 107.805 110.202 107.805 106.436V69.3195C110.916 68.6645 113.263 66.0445 113.263 62.7695V49.1237C113.263 45.3574 110.206 42.3008 106.44 42.3008ZM105.076 61.4049H69.5964V50.4883H105.076V61.4049ZM87.3359 25.9258C91.1022 25.9258 94.1589 28.9824 94.1589 32.7487C94.1589 36.5149 91.1022 39.5716 87.3359 39.5716H70.0876C71.9434 31.7662 78.9847 25.9258 87.3359 25.9258ZM43.6693 25.9258C52.0205 25.9258 59.0618 31.7662 60.9176 39.5716H43.6693C39.903 39.5716 36.8464 36.5149 36.8464 32.7487C36.8464 28.9824 39.903 25.9258 43.6693 25.9258ZM25.9297 50.4883H61.4089V61.4049H25.9297V50.4883ZM31.388 69.5924H61.4089V105.072H31.388V69.5924ZM99.6172 105.072H69.5964V69.5924H99.6172V105.072Z" fill="#222222"/>
</g>
</svg>
