<svg width="142" height="50" viewBox="0 0 142 50" fill="none" xmlns="http://www.w3.org/2000/svg">
<path d="M57.0898 22.9992H62.0456V4.73047H57.0898V22.9992Z" fill="#222222"/>
<path d="M81.2061 22.9992H85.6523V15.4318C85.6523 13.7247 85.2191 12.387 84.3783 11.4188C83.5375 10.4506 82.4291 9.95375 81.0787 9.95375C80.5691 9.95375 80.0723 10.0302 79.5882 10.1831C79.1041 10.3359 78.7091 10.5016 78.4161 10.6799C78.1104 10.8583 77.8301 11.0748 77.5753 11.3169C77.3205 11.5589 77.1549 11.7246 77.0784 11.8265C77.002 11.9284 76.9383 11.9921 76.9128 12.0431L76.5688 11.5207C76.3395 11.1768 75.9191 10.8328 75.3076 10.4888C74.6961 10.1321 74.0209 9.96649 73.2565 9.96649C72.8361 9.96649 72.4412 10.0302 72.0717 10.1576C71.6895 10.285 71.3838 10.4379 71.1545 10.6035C70.9124 10.7691 70.6958 10.9602 70.492 11.164C70.2882 11.3679 70.1735 11.5207 70.1226 11.5972L69.9952 11.7883V10.2213H65.5617V23.0119H69.9952V16.6166C69.9952 15.865 70.148 15.2917 70.4793 14.884C70.7978 14.4763 71.2054 14.2725 71.6895 14.2725C72.8106 14.2725 73.3839 14.9222 73.3839 16.2344V23.0119H77.8173V16.6166C77.8173 15.865 77.9702 15.2917 78.3014 14.884C78.6199 14.4763 79.0276 14.2725 79.5117 14.2725C80.6328 14.2725 81.2061 14.9222 81.2061 16.2344V22.9992Z" fill="#222222"/>
<path d="M93.2069 16.6039C93.2069 15.8395 93.449 15.2025 93.9458 14.6674C94.4427 14.1324 95.0159 13.8648 95.6784 13.8648C96.3409 13.8648 96.9142 14.1324 97.411 14.6674C97.9079 15.2025 98.1626 15.8395 98.1626 16.6039C98.1626 17.3683 97.9079 18.018 97.411 18.553C96.9142 19.0881 96.3409 19.3429 95.6784 19.3429C95.0159 19.3429 94.4427 19.0881 93.9458 18.553C93.449 18.018 93.2069 17.3683 93.2069 16.6039ZM93.2069 21.4322L93.5636 21.9036C93.8057 22.2093 94.2388 22.5024 94.8503 22.8081C95.4618 23.1139 96.1243 23.254 96.8632 23.254C98.4557 23.254 99.8315 22.6298 100.991 21.3685C102.137 20.12 102.723 18.5276 102.723 16.6166C102.723 14.7057 102.137 13.1132 100.991 11.852C99.8315 10.5907 98.4557 9.95375 96.8632 9.95375C96.3791 9.95375 95.9332 10.0302 95.5255 10.1576C95.1051 10.285 94.7611 10.4379 94.4936 10.6035C94.2388 10.7691 93.9968 10.9602 93.7674 11.164C93.5381 11.3679 93.398 11.508 93.3343 11.5844C93.2833 11.6609 93.2324 11.7246 93.1942 11.7755V10.2085H88.7607V28.4773H93.1942L93.2069 21.4322Z" fill="#222222"/>
<path d="M116.419 22.9992V15.0624C116.419 13.661 115.858 12.4635 114.762 11.457C113.654 10.4633 112.253 9.95375 110.546 9.95375C109.87 9.95375 109.221 10.0557 108.596 10.234C107.985 10.4124 107.475 10.6162 107.093 10.8328C106.711 11.0494 106.354 11.2914 106.023 11.5717C105.692 11.852 105.488 12.0558 105.399 12.1705C105.322 12.2851 105.246 12.3743 105.195 12.438L107.412 14.7821L107.717 14.4381C107.921 14.2343 108.252 14.0305 108.711 13.8011C109.17 13.5846 109.654 13.4699 110.151 13.4699C110.737 13.4699 111.195 13.61 111.501 13.8648C111.82 14.1324 111.972 14.4381 111.972 14.7821L108.316 15.5592C107.068 15.8267 106.112 16.3109 105.424 17.0115C104.749 17.6995 104.405 18.5785 104.405 19.6232C104.405 20.6296 104.8 21.4832 105.59 22.1966C106.38 22.91 107.373 23.2667 108.584 23.2667C109.246 23.2667 109.87 23.1011 110.456 22.7954C111.042 22.4896 111.412 22.2348 111.59 22.0437C111.769 21.8399 111.896 21.687 111.972 21.5724V23.0119L116.419 22.9992ZM110.023 19.878C109.246 19.878 108.851 19.5213 108.839 18.8333C108.839 18.5785 108.953 18.3365 109.182 18.1072C109.412 17.8778 109.692 17.725 110.023 17.6613L111.972 17.2663V17.6613C111.972 18.2983 111.781 18.8333 111.399 19.2537C111.017 19.6614 110.558 19.878 110.023 19.878Z" fill="#222222"/>
<path d="M118.89 16.6039C118.89 18.3874 119.578 19.9417 120.967 21.2666C122.343 22.5915 123.999 23.254 125.935 23.254C126.61 23.254 127.273 23.1648 127.91 22.9737C128.547 22.7826 129.056 22.5788 129.451 22.3495C129.834 22.1202 130.203 21.8654 130.547 21.5724C130.878 21.2793 131.095 21.0755 131.197 20.9481C131.286 20.8207 131.362 20.7315 131.413 20.6551L128.814 17.9161L128.547 18.2473C128.356 18.5021 128.037 18.7441 127.604 18.9862C127.171 19.2283 126.7 19.3429 126.203 19.3429C125.413 19.3429 124.763 19.0881 124.241 18.5658C123.718 18.0435 123.464 17.3937 123.464 16.6039C123.464 15.8268 123.718 15.177 124.241 14.6547C124.763 14.1324 125.413 13.8648 126.203 13.8648C126.7 13.8648 127.171 14.005 127.63 14.2725C128.088 14.5528 128.381 14.7694 128.509 14.9222C128.636 15.0751 128.738 15.2025 128.814 15.3044L131.413 12.5654L131.209 12.2979C131.069 12.1195 130.84 11.8902 130.534 11.6354C130.216 11.3806 129.859 11.1385 129.451 10.8837C129.044 10.629 128.521 10.4124 127.897 10.234C127.26 10.0557 126.61 9.95375 125.935 9.95375C123.999 9.95375 122.343 10.629 120.967 11.9539C119.578 13.2788 118.89 14.8331 118.89 16.6039Z" fill="#222222"/>
<path d="M135.21 8.78169C135.21 9.30402 135.057 9.71169 134.777 10.0174C134.484 10.3232 134.101 10.4761 133.63 10.4761H132.713V14.3872H134.675V18.2983C134.675 19.9289 135.082 21.1519 135.872 21.9928C136.675 22.8336 137.796 23.254 139.235 23.254C140.204 23.2667 141.07 23.1393 141.847 22.8718V19.0881L141.681 19.1391C141.567 19.19 141.401 19.241 141.185 19.2792C140.968 19.3302 140.751 19.3429 140.535 19.3429C140.102 19.3429 139.758 19.2283 139.503 18.9989C139.248 18.7696 139.108 18.4511 139.108 18.0562V14.3999H141.72V10.4888H139.108V6.57773H135.197L135.21 8.78169Z" fill="#222222"/>
<path d="M70.9943 35.5102L74.3599 45.9992H78.7631L84.7224 27.8553H79.421L76.3084 38.8758L73.0694 27.8553H68.9193L65.6802 38.8758L62.5677 27.8553H57.2536L63.2256 45.9992H67.6287L70.9943 35.5102Z" fill="#222222"/>
<path d="M96.5147 45.9992V38.1166C96.5147 36.7248 95.958 35.5355 94.8699 34.5359C93.7691 33.549 92.3773 33.0429 90.6818 33.0429C90.0112 33.0429 89.366 33.1441 88.746 33.3213C88.1387 33.4984 87.6326 33.7008 87.253 33.9159C86.8734 34.131 86.5191 34.3714 86.1902 34.6498C85.8612 34.9282 85.6587 35.1306 85.5702 35.2445C85.4943 35.3583 85.4183 35.4469 85.3677 35.5102L87.5693 37.8383L87.873 37.4966C88.0754 37.2942 88.4044 37.0918 88.8599 36.864C89.3154 36.6489 89.7962 36.535 90.2896 36.535C90.8716 36.535 91.3271 36.6742 91.6308 36.9273C91.9471 37.193 92.0989 37.4966 92.0989 37.8383L88.4676 38.6101C87.2277 38.8758 86.2787 39.3566 85.5955 40.0525C84.9249 40.7357 84.5833 41.6087 84.5833 42.6463C84.5833 43.6458 84.9755 44.4935 85.76 45.2021C86.5444 45.9106 87.5313 46.2649 88.7333 46.2649C89.3913 46.2649 90.0112 46.1004 90.5933 45.7968C91.1753 45.4931 91.5422 45.24 91.7194 45.0503C91.8965 44.8478 92.023 44.696 92.0989 44.5821V46.0119L96.5147 45.9992ZM90.1631 42.8993C89.3913 42.8993 88.999 42.545 88.9864 41.8618C88.9864 41.6087 89.1003 41.3683 89.328 41.1406C89.5558 40.9128 89.8341 40.761 90.1631 40.6978L92.0989 40.3055V40.6978C92.0989 41.3304 91.9091 41.8618 91.5296 42.2793C91.15 42.6842 90.6945 42.8993 90.1631 42.8993Z" fill="#222222"/>
<path d="M104.157 27.8553H99.7538V45.9992H104.157V27.8553Z" fill="#222222"/>
<path d="M111.926 27.8553H107.522V45.9992H111.926V27.8553Z" fill="#222222"/>
<path d="M127.729 40.8116L127.855 39.3945C127.855 37.6358 127.21 36.1428 125.945 34.9028C124.679 33.6629 123.111 33.0429 121.251 33.0429C119.378 33.0429 117.796 33.7008 116.481 34.9914C115.165 36.282 114.507 37.8383 114.507 39.6476C114.507 41.4822 115.165 43.0385 116.506 44.3291C117.847 45.6196 119.505 46.2523 121.504 46.2523C122.124 46.2523 122.731 46.189 123.338 46.0498C123.946 45.9233 124.439 45.7715 124.819 45.5943C125.198 45.4172 125.565 45.2274 125.919 44.9996C126.261 44.7719 126.489 44.6201 126.59 44.5315C126.691 44.4429 126.767 44.367 126.818 44.3164L124.882 41.4696L124.566 41.7985C124.35 42.0136 124.009 42.2287 123.528 42.4438C123.047 42.6589 122.541 42.7601 122.01 42.7601C121.175 42.7601 120.479 42.5703 119.947 42.1655C119.416 41.7606 119.112 41.3177 119.049 40.8116H127.729ZM121.251 36.4085C121.82 36.4085 122.301 36.5856 122.68 36.9273C123.06 37.2689 123.313 37.6991 123.452 38.2305H119.049C119.176 37.6991 119.441 37.2562 119.821 36.9146C120.2 36.5856 120.669 36.4085 121.251 36.4085Z" fill="#222222"/>
<path d="M131.752 31.8789C131.752 32.3976 131.6 32.8025 131.322 33.1062C131.031 33.4098 130.651 33.5617 130.183 33.5617H129.272V37.446H131.221V41.3304C131.221 42.9499 131.626 44.1646 132.41 44.9996C133.207 45.8347 134.321 46.2523 135.751 46.2523C136.712 46.2649 137.572 46.1384 138.344 45.8727V42.1148L138.18 42.1655C138.066 42.2161 137.901 42.2667 137.686 42.3046C137.471 42.3552 137.256 42.3679 137.041 42.3679C136.611 42.3679 136.269 42.254 136.016 42.0263C135.763 41.7985 135.624 41.4822 135.624 41.09V37.4587H138.218V33.5743H135.624V29.69H131.74L131.752 31.8789Z" fill="#222222"/>
<circle cx="25.0009" cy="9.72157" r="5.55556" fill="#222222"/>
<path d="M42.5 39L36 23L39.5 5H49.5001L42.5 39Z" fill="#222222"/>
<path d="M7.58632 39L14.0863 23L10.5 5H0.5L7.58632 39Z" fill="#222222"/>
<path d="M32.5 22L27.5 34.5L31.4998 45.5H40.4998L32.5 22Z" fill="#222222"/>
<path d="M30 18.5H20L9 45.5H19L30 18.5Z" fill="#222222"/>
</svg>
