<svg width="217" height="40" viewBox="0 0 217 40" fill="none" xmlns="http://www.w3.org/2000/svg">
<path d="M54.8226 12.2597C54.2809 12.2597 53.8069 12.065 53.4006 11.6756C53.0112 11.2693 52.8165 10.7953 52.8165 10.2536C52.8165 9.71187 53.0112 9.23785 53.4006 8.83156C53.8069 8.42526 54.2809 8.22211 54.8226 8.22211C55.3813 8.22211 55.8553 8.42526 56.2447 8.83156C56.651 9.23785 56.8541 9.71187 56.8541 10.2536C56.8541 10.7953 56.651 11.2693 56.2447 11.6756C55.8553 12.065 55.3813 12.2597 54.8226 12.2597ZM56.4732 26.4801H53.1974V13.7833H56.4732V26.4801ZM73.768 13.4278C75.2239 13.4278 76.3836 13.9018 77.247 14.8498C78.1273 15.7979 78.5674 17.0675 78.5674 18.6589V26.4801H75.2917V18.8874C75.2917 18.1256 75.1054 17.5331 74.733 17.1099C74.3606 16.6866 73.8358 16.475 73.1586 16.475C72.4137 16.475 71.8297 16.7205 71.4064 17.2114C71.0001 17.7024 70.797 18.4134 70.797 19.3445V26.4801H67.5212V18.8874C67.5212 18.1256 67.335 17.5331 66.9626 17.1099C66.5901 16.6866 66.0653 16.475 65.3881 16.475C64.6602 16.475 64.0761 16.729 63.636 17.2368C63.2128 17.7278 63.0012 18.4303 63.0012 19.3445V26.4801H59.7254V13.7833H63.0012V15.1292C63.763 13.9949 64.9395 13.4278 66.5309 13.4278C68.1053 13.4278 69.2564 14.0372 69.9844 15.2561C70.8139 14.0372 72.0751 13.4278 73.768 13.4278ZM88.9931 13.4278C90.7029 13.4278 92.1588 14.0796 93.3608 15.3831C94.5797 16.6866 95.1891 18.2695 95.1891 20.1317C95.1891 22.0278 94.5797 23.6191 93.3608 24.9057C92.1757 26.1923 90.7198 26.8356 88.9931 26.8356C87.2155 26.8356 85.8443 26.2177 84.8793 24.9819V31.5588H81.6035V13.7833H84.8793V15.2815C85.8443 14.0457 87.2155 13.4278 88.9931 13.4278ZM85.8697 22.7219C86.5299 23.3821 87.3679 23.7122 88.3836 23.7122C89.3994 23.7122 90.2374 23.3821 90.8976 22.7219C91.5748 22.0447 91.9133 21.1813 91.9133 20.1317C91.9133 19.0821 91.5748 18.2272 90.8976 17.567C90.2374 16.8898 89.3994 16.5512 88.3836 16.5512C87.3679 16.5512 86.5299 16.8898 85.8697 17.567C85.2094 18.2272 84.8793 19.0821 84.8793 20.1317C84.8793 21.1813 85.2094 22.0447 85.8697 22.7219ZM107.403 15.2815V13.7833H110.679V26.4801H107.403V24.9819C106.421 26.2177 105.041 26.8356 103.264 26.8356C101.571 26.8356 100.115 26.1923 98.896 24.9057C97.694 23.6022 97.093 22.0108 97.093 20.1317C97.093 18.2695 97.694 16.6866 98.896 15.3831C100.115 14.0796 101.571 13.4278 103.264 13.4278C105.041 13.4278 106.421 14.0457 107.403 15.2815ZM101.359 22.7219C102.019 23.3821 102.857 23.7122 103.873 23.7122C104.889 23.7122 105.727 23.3821 106.387 22.7219C107.064 22.0447 107.403 21.1813 107.403 20.1317C107.403 19.0821 107.064 18.2272 106.387 17.567C105.727 16.8898 104.889 16.5512 103.873 16.5512C102.857 16.5512 102.019 16.8898 101.359 17.567C100.699 18.2272 100.369 19.0821 100.369 20.1317C100.369 21.1813 100.699 22.0447 101.359 22.7219ZM119.947 26.8356C118.034 26.8356 116.434 26.1923 115.147 24.9057C113.878 23.6191 113.243 22.0278 113.243 20.1317C113.243 18.2356 113.878 16.6443 115.147 15.3577C116.434 14.0711 118.034 13.4278 119.947 13.4278C121.182 13.4278 122.308 13.7241 123.324 14.3166C124.34 14.9091 125.11 15.7048 125.635 16.7036L122.816 18.3542C122.562 17.8294 122.173 17.4146 121.648 17.1099C121.14 16.8051 120.565 16.6528 119.921 16.6528C118.939 16.6528 118.127 16.9829 117.483 17.6431C116.84 18.2864 116.519 19.116 116.519 20.1317C116.519 21.1136 116.84 21.9431 117.483 22.6203C118.127 23.2636 118.939 23.5852 119.921 23.5852C120.582 23.5852 121.166 23.4413 121.673 23.1535C122.198 22.8488 122.588 22.4341 122.842 21.9093L125.686 23.5344C125.127 24.5502 124.331 25.3543 123.299 25.9468C122.283 26.5394 121.166 26.8356 119.947 26.8356ZM134.935 13.7833V16.9321H132.065V22.214C132.065 22.6541 132.175 22.9758 132.395 23.1789C132.615 23.3821 132.937 23.5006 133.36 23.5344C133.783 23.5514 134.308 23.5429 134.935 23.5091V26.4801C132.717 26.734 131.134 26.5309 130.186 25.8707C129.255 25.1935 128.789 23.9746 128.789 22.214V16.9321H126.58V13.7833H128.789V11.2186L132.065 10.2282V13.7833H134.935ZM156.437 21.6045L158.596 13.7833H162.074L158.037 26.4801H154.913L152.577 18.7858L150.241 26.4801H147.118L143.08 13.7833H146.559L148.717 21.5791L151.028 13.7833H154.126L156.437 21.6045ZM173.248 15.2815V13.7833H176.523V26.4801H173.248V24.9819C172.266 26.2177 170.886 26.8356 169.108 26.8356C167.416 26.8356 165.96 26.1923 164.741 24.9057C163.539 23.6022 162.938 22.0108 162.938 20.1317C162.938 18.2695 163.539 16.6866 164.741 15.3831C165.96 14.0796 167.416 13.4278 169.108 13.4278C170.886 13.4278 172.266 14.0457 173.248 15.2815ZM167.204 22.7219C167.864 23.3821 168.702 23.7122 169.718 23.7122C170.734 23.7122 171.572 23.3821 172.232 22.7219C172.909 22.0447 173.248 21.1813 173.248 20.1317C173.248 19.0821 172.909 18.2272 172.232 17.567C171.572 16.8898 170.734 16.5512 169.718 16.5512C168.702 16.5512 167.864 16.8898 167.204 17.567C166.544 18.2272 166.214 19.0821 166.214 20.1317C166.214 21.1813 166.544 22.0447 167.204 22.7219ZM183.024 26.4801H179.748V7.94278H183.024V26.4801ZM189.552 26.4801H186.276V7.94278H189.552V26.4801ZM205.145 21.4776H195.572C195.995 23.0689 197.188 23.8646 199.152 23.8646C200.405 23.8646 201.353 23.4413 201.996 22.5949L204.637 24.1185C203.384 25.9299 201.539 26.8356 199.101 26.8356C197.002 26.8356 195.318 26.2008 194.048 24.9311C192.778 23.6614 192.143 22.0616 192.143 20.1317C192.143 18.2356 192.77 16.6443 194.023 15.3577C195.258 14.0711 196.867 13.4278 198.847 13.4278C200.726 13.4278 202.259 14.0711 203.444 15.3577C204.662 16.6443 205.272 18.2356 205.272 20.1317C205.272 20.4872 205.23 20.9358 205.145 21.4776ZM195.521 18.9382H201.996C201.81 18.1087 201.429 17.4738 200.853 17.0337C200.295 16.5935 199.626 16.3735 198.847 16.3735C197.967 16.3735 197.239 16.602 196.663 17.0591C196.088 17.4992 195.707 18.1256 195.521 18.9382ZM214.703 13.7833V16.9321H211.834V22.214C211.834 22.6541 211.944 22.9758 212.164 23.1789C212.384 23.3821 212.706 23.5006 213.129 23.5344C213.552 23.5514 214.077 23.5429 214.703 23.5091V26.4801C212.486 26.734 210.903 26.5309 209.955 25.8707C209.024 25.1935 208.558 23.9746 208.558 22.214V16.9321H206.349V13.7833H208.558V11.2186L211.834 10.2282V13.7833H214.703Z" fill="#222222"/>
<path d="M54.8226 12.2597C54.2809 12.2597 53.8069 12.065 53.4006 11.6756C53.0112 11.2693 52.8165 10.7953 52.8165 10.2536C52.8165 9.71187 53.0112 9.23785 53.4006 8.83156C53.8069 8.42526 54.2809 8.22211 54.8226 8.22211C55.3813 8.22211 55.8553 8.42526 56.2447 8.83156C56.651 9.23785 56.8541 9.71187 56.8541 10.2536C56.8541 10.7953 56.651 11.2693 56.2447 11.6756C55.8553 12.065 55.3813 12.2597 54.8226 12.2597ZM56.4732 26.4801H53.1974V13.7833H56.4732V26.4801ZM73.768 13.4278C75.2239 13.4278 76.3836 13.9018 77.247 14.8498C78.1273 15.7979 78.5674 17.0675 78.5674 18.6589V26.4801H75.2917V18.8874C75.2917 18.1256 75.1054 17.5331 74.733 17.1099C74.3606 16.6866 73.8358 16.475 73.1586 16.475C72.4137 16.475 71.8297 16.7205 71.4064 17.2114C71.0001 17.7024 70.797 18.4134 70.797 19.3445V26.4801H67.5212V18.8874C67.5212 18.1256 67.335 17.5331 66.9626 17.1099C66.5901 16.6866 66.0653 16.475 65.3881 16.475C64.6602 16.475 64.0761 16.729 63.636 17.2368C63.2128 17.7278 63.0012 18.4303 63.0012 19.3445V26.4801H59.7254V13.7833H63.0012V15.1292C63.763 13.9949 64.9395 13.4278 66.5309 13.4278C68.1053 13.4278 69.2564 14.0372 69.9844 15.2561C70.8139 14.0372 72.0751 13.4278 73.768 13.4278ZM88.9931 13.4278C90.7029 13.4278 92.1588 14.0796 93.3608 15.3831C94.5797 16.6866 95.1891 18.2695 95.1891 20.1317C95.1891 22.0278 94.5797 23.6191 93.3608 24.9057C92.1757 26.1923 90.7198 26.8356 88.9931 26.8356C87.2155 26.8356 85.8443 26.2177 84.8793 24.9819V31.5588H81.6035V13.7833H84.8793V15.2815C85.8443 14.0457 87.2155 13.4278 88.9931 13.4278ZM85.8697 22.7219C86.5299 23.3821 87.3679 23.7122 88.3836 23.7122C89.3994 23.7122 90.2374 23.3821 90.8976 22.7219C91.5748 22.0447 91.9133 21.1813 91.9133 20.1317C91.9133 19.0821 91.5748 18.2272 90.8976 17.567C90.2374 16.8898 89.3994 16.5512 88.3836 16.5512C87.3679 16.5512 86.5299 16.8898 85.8697 17.567C85.2094 18.2272 84.8793 19.0821 84.8793 20.1317C84.8793 21.1813 85.2094 22.0447 85.8697 22.7219ZM107.403 15.2815V13.7833H110.679V26.4801H107.403V24.9819C106.421 26.2177 105.041 26.8356 103.264 26.8356C101.571 26.8356 100.115 26.1923 98.896 24.9057C97.694 23.6022 97.093 22.0108 97.093 20.1317C97.093 18.2695 97.694 16.6866 98.896 15.3831C100.115 14.0796 101.571 13.4278 103.264 13.4278C105.041 13.4278 106.421 14.0457 107.403 15.2815ZM101.359 22.7219C102.019 23.3821 102.857 23.7122 103.873 23.7122C104.889 23.7122 105.727 23.3821 106.387 22.7219C107.064 22.0447 107.403 21.1813 107.403 20.1317C107.403 19.0821 107.064 18.2272 106.387 17.567C105.727 16.8898 104.889 16.5512 103.873 16.5512C102.857 16.5512 102.019 16.8898 101.359 17.567C100.699 18.2272 100.369 19.0821 100.369 20.1317C100.369 21.1813 100.699 22.0447 101.359 22.7219ZM119.947 26.8356C118.034 26.8356 116.434 26.1923 115.147 24.9057C113.878 23.6191 113.243 22.0278 113.243 20.1317C113.243 18.2356 113.878 16.6443 115.147 15.3577C116.434 14.0711 118.034 13.4278 119.947 13.4278C121.182 13.4278 122.308 13.7241 123.324 14.3166C124.34 14.9091 125.11 15.7048 125.635 16.7036L122.816 18.3542C122.562 17.8294 122.173 17.4146 121.648 17.1099C121.14 16.8051 120.565 16.6528 119.921 16.6528C118.939 16.6528 118.127 16.9829 117.483 17.6431C116.84 18.2864 116.519 19.116 116.519 20.1317C116.519 21.1136 116.84 21.9431 117.483 22.6203C118.127 23.2636 118.939 23.5852 119.921 23.5852C120.582 23.5852 121.166 23.4413 121.673 23.1535C122.198 22.8488 122.588 22.4341 122.842 21.9093L125.686 23.5344C125.127 24.5502 124.331 25.3543 123.299 25.9468C122.283 26.5394 121.166 26.8356 119.947 26.8356ZM134.935 13.7833V16.9321H132.065V22.214C132.065 22.6541 132.175 22.9758 132.395 23.1789C132.615 23.3821 132.937 23.5006 133.36 23.5344C133.783 23.5514 134.308 23.5429 134.935 23.5091V26.4801C132.717 26.734 131.134 26.5309 130.186 25.8707C129.255 25.1935 128.789 23.9746 128.789 22.214V16.9321H126.58V13.7833H128.789V11.2186L132.065 10.2282V13.7833H134.935ZM156.437 21.6045L158.596 13.7833H162.074L158.037 26.4801H154.913L152.577 18.7858L150.241 26.4801H147.118L143.08 13.7833H146.559L148.717 21.5791L151.028 13.7833H154.126L156.437 21.6045ZM173.248 15.2815V13.7833H176.523V26.4801H173.248V24.9819C172.266 26.2177 170.886 26.8356 169.108 26.8356C167.416 26.8356 165.96 26.1923 164.741 24.9057C163.539 23.6022 162.938 22.0108 162.938 20.1317C162.938 18.2695 163.539 16.6866 164.741 15.3831C165.96 14.0796 167.416 13.4278 169.108 13.4278C170.886 13.4278 172.266 14.0457 173.248 15.2815ZM167.204 22.7219C167.864 23.3821 168.702 23.7122 169.718 23.7122C170.734 23.7122 171.572 23.3821 172.232 22.7219C172.909 22.0447 173.248 21.1813 173.248 20.1317C173.248 19.0821 172.909 18.2272 172.232 17.567C171.572 16.8898 170.734 16.5512 169.718 16.5512C168.702 16.5512 167.864 16.8898 167.204 17.567C166.544 18.2272 166.214 19.0821 166.214 20.1317C166.214 21.1813 166.544 22.0447 167.204 22.7219ZM183.024 26.4801H179.748V7.94278H183.024V26.4801ZM189.552 26.4801H186.276V7.94278H189.552V26.4801ZM205.145 21.4776H195.572C195.995 23.0689 197.188 23.8646 199.152 23.8646C200.405 23.8646 201.353 23.4413 201.996 22.5949L204.637 24.1185C203.384 25.9299 201.539 26.8356 199.101 26.8356C197.002 26.8356 195.318 26.2008 194.048 24.9311C192.778 23.6614 192.143 22.0616 192.143 20.1317C192.143 18.2356 192.77 16.6443 194.023 15.3577C195.258 14.0711 196.867 13.4278 198.847 13.4278C200.726 13.4278 202.259 14.0711 203.444 15.3577C204.662 16.6443 205.272 18.2356 205.272 20.1317C205.272 20.4872 205.23 20.9358 205.145 21.4776ZM195.521 18.9382H201.996C201.81 18.1087 201.429 17.4738 200.853 17.0337C200.295 16.5935 199.626 16.3735 198.847 16.3735C197.967 16.3735 197.239 16.602 196.663 17.0591C196.088 17.4992 195.707 18.1256 195.521 18.9382ZM214.703 13.7833V16.9321H211.834V22.214C211.834 22.6541 211.944 22.9758 212.164 23.1789C212.384 23.3821 212.706 23.5006 213.129 23.5344C213.552 23.5514 214.077 23.5429 214.703 23.5091V26.4801C212.486 26.734 210.903 26.5309 209.955 25.8707C209.024 25.1935 208.558 23.9746 208.558 22.214V16.9321H206.349V13.7833H208.558V11.2186L211.834 10.2282V13.7833H214.703Z" fill="url(#paint0_linear_3682_61647)"/>
<rect width="39.6006" height="39.6006" rx="11.5502" fill="url(#paint1_linear_3682_61647)"/>
<path d="M22.7057 12.3762C22.7057 13.9257 21.4427 15.1818 19.8847 15.1818C18.3268 15.1818 17.0638 13.9257 17.0638 12.3762C17.0638 10.8267 18.3268 9.57056 19.8847 9.57056C21.4427 9.57056 22.7057 10.8267 22.7057 12.3762Z" fill="white"/>
<path d="M27.969 25.2033L25.5402 19.2574C25.4932 19.1422 25.4808 19.0159 25.5047 18.8938L27.1439 10.5092C27.2028 10.208 27.468 9.99061 27.7765 9.99061H31.5326C31.9407 9.99061 32.246 10.3632 32.1637 10.7607L29.1971 25.0913C29.0686 25.7121 28.2088 25.7905 27.969 25.2033Z" fill="white"/>
<path d="M11.8384 25.2119L14.27 19.2589C14.3174 19.1427 14.3296 19.0153 14.305 18.8924L12.625 10.5063C12.5649 10.2065 12.3003 9.99061 11.993 9.99061H8.23642C7.82765 9.99061 7.52218 10.3643 7.60559 10.7623L10.6105 25.1014C10.7404 25.7211 11.5988 25.7983 11.8384 25.2119Z" fill="white"/>
<path d="M23.0477 20.1857L21.2471 24.6627C21.1883 24.809 21.1857 24.9717 21.2398 25.1197L23.0325 30.0231C23.1251 30.2763 23.3671 30.4449 23.6381 30.4449H26.8567C27.2983 30.4449 27.609 30.0133 27.4667 29.5975L24.256 20.2172C24.0632 19.6539 23.2699 19.6333 23.0477 20.1857Z" fill="white"/>
<path d="M21.4666 16.8093H17.7805C17.5185 16.8093 17.2826 16.967 17.1837 17.2083L12.1232 29.5619C11.9506 29.9835 12.2623 30.4446 12.72 30.4446H16.4061C16.6681 30.4446 16.904 30.2869 17.0029 30.0456L22.0634 17.692C22.236 17.2704 21.9243 16.8093 21.4666 16.8093Z" fill="white"/>
<defs>
<linearGradient id="paint0_linear_3682_61647" x1="99.8223" y1="21.7677" x2="113.31" y2="-21.2862" gradientUnits="userSpaceOnUse">
<stop stop-color="#1F1961"/>
<stop offset="1" stop-color="#AB3C7E"/>
</linearGradient>
<linearGradient id="paint1_linear_3682_61647" x1="38.9406" y1="24.9154" x2="-0.990017" y2="13.5302" gradientUnits="userSpaceOnUse">
<stop offset="0.0748105" stop-color="#1F1961"/>
<stop offset="1" stop-color="#67227A"/>
</linearGradient>
</defs>
</svg>
