<svg width="20" height="20" viewBox="0 0 20 20" fill="none" xmlns="http://www.w3.org/2000/svg">
<g clip-path="url(#clip0_6197_979)">
<path d="M17.5003 12.5V15H20.0003V16.6667H17.5003V19.1667H15.8337V16.6667H13.3337V15H15.8337V12.5H17.5003ZM17.507 2.5C17.9637 2.5 18.3337 2.87083 18.3337 3.3275V10.8333H16.667V4.16667H3.33366V15.8325L11.667 7.5L14.167 10V12.3575L11.667 9.8575L5.68949 15.8333H11.667V17.5H2.49366C2.27434 17.4998 2.06407 17.4125 1.90907 17.2573C1.75406 17.1022 1.66699 16.8918 1.66699 16.6725V3.3275C1.66852 3.10865 1.75608 2.89918 1.91075 2.74435C2.06543 2.58951 2.27481 2.50175 2.49366 2.5H17.507ZM6.66699 5.83333C7.10902 5.83333 7.53294 6.00893 7.8455 6.32149C8.15806 6.63405 8.33366 7.05797 8.33366 7.5C8.33366 7.94203 8.15806 8.36595 7.8455 8.67851C7.53294 8.99107 7.10902 9.16667 6.66699 9.16667C6.22497 9.16667 5.80104 8.99107 5.48848 8.67851C5.17592 8.36595 5.00033 7.94203 5.00033 7.5C5.00033 7.05797 5.17592 6.63405 5.48848 6.32149C5.80104 6.00893 6.22497 5.83333 6.66699 5.83333Z" fill="#1E1E1E"/>
</g>
<defs>
<clipPath id="clip0_6197_979">
<rect width="20" height="20" fill="white"/>
</clipPath>
</defs>
</svg>
