<svg width="21" height="20" viewBox="0 0 21 20" fill="none" xmlns="http://www.w3.org/2000/svg">
<rect width="20" height="20" rx="7" transform="matrix(1 0 0 -1 0.5 20)" fill="white"/>
<path d="M11.0303 14.5303C10.7374 14.8232 10.2626 14.8232 9.96967 14.5303L5.1967 9.75736C4.90381 9.46447 4.90381 8.98959 5.1967 8.6967C5.48959 8.40381 5.96447 8.40381 6.25736 8.6967L10.5 12.9393L14.7426 8.6967C15.0355 8.40381 15.5104 8.40381 15.8033 8.6967C16.0962 8.98959 16.0962 9.46447 15.8033 9.75736L11.0303 14.5303ZM11.25 5L11.25 14L9.75 14L9.75 5L11.25 5Z" fill="#1D55E4"/>
</svg>
