<svg width="20" height="20" viewBox="0 0 20 20" fill="none" xmlns="http://www.w3.org/2000/svg">
<rect width="20" height="20" rx="7" transform="matrix(1 0 0 -1 0 20)" fill="white"/>
<path d="M8.25066 16.5807C8.38349 16.6514 8.52361 16.4984 8.44229 16.3719C8.00086 15.6848 7.58286 14.5288 8.24884 13.0399C9.35944 10.5572 10.0352 9.27124 10.0352 9.27124C10.0352 9.27124 10.3947 10.7719 11.3691 12.1062C12.3069 13.3903 12.8202 15.0054 11.9927 16.3508C11.915 16.4771 12.0519 16.6261 12.1839 16.5586C13.2082 16.0346 14.3571 14.9835 14.4868 12.8919C14.5346 12.2528 14.4629 11.358 14.1045 10.2288C13.6436 8.79771 13.077 8.12993 12.7492 7.84316C12.6512 7.75737 12.4987 7.83341 12.5067 7.96344C12.6022 9.50759 12.0213 9.89944 11.6907 9.01635C11.5586 8.66363 11.4816 8.05356 11.4816 7.31062C11.4816 6.07374 11.1227 4.8005 10.3316 3.76585C10.1259 3.49679 9.88514 3.24537 9.60894 3.03097C9.50895 2.95333 9.36401 3.03137 9.37317 3.15762C9.43392 3.99611 9.37888 6.39918 7.27063 9.27008C5.35907 11.9332 6.09979 13.9784 6.36263 14.5323C6.86516 15.5935 7.56611 16.2168 8.25066 16.5807Z" fill="#FF3A44"/>
</svg>
