<svg width="50" height="50" viewBox="0 0 50 50" fill="none" xmlns="http://www.w3.org/2000/svg">
<rect width="50" height="50" rx="20" fill="#D8FEF5"/>
<rect width="50" height="50" rx="20" fill="black" fill-opacity="0.02"/>
<g clip-path="url(#clip0_4402_26959)">
<path d="M33 35H31V33C31 32.2044 30.6839 31.4413 30.1213 30.8787C29.5587 30.3161 28.7956 30 28 30H22C21.2044 30 20.4413 30.3161 19.8787 30.8787C19.3161 31.4413 19 32.2044 19 33V35H17V33C17 31.6739 17.5268 30.4021 18.4645 29.4645C19.4021 28.5268 20.6739 28 22 28H28C29.3261 28 30.5979 28.5268 31.5355 29.4645C32.4732 30.4021 33 31.6739 33 33V35ZM25 26C24.2121 26 23.4319 25.8448 22.7039 25.5433C21.9759 25.2417 21.3145 24.7998 20.7574 24.2426C20.2002 23.6855 19.7583 23.0241 19.4567 22.2961C19.1552 21.5681 19 20.7879 19 20C19 19.2121 19.1552 18.4319 19.4567 17.7039C19.7583 16.9759 20.2002 16.3145 20.7574 15.7574C21.3145 15.2002 21.9759 14.7583 22.7039 14.4567C23.4319 14.1552 24.2121 14 25 14C26.5913 14 28.1174 14.6321 29.2426 15.7574C30.3679 16.8826 31 18.4087 31 20C31 21.5913 30.3679 23.1174 29.2426 24.2426C28.1174 25.3679 26.5913 26 25 26ZM25 24C26.0609 24 27.0783 23.5786 27.8284 22.8284C28.5786 22.0783 29 21.0609 29 20C29 18.9391 28.5786 17.9217 27.8284 17.1716C27.0783 16.4214 26.0609 16 25 16C23.9391 16 22.9217 16.4214 22.1716 17.1716C21.4214 17.9217 21 18.9391 21 20C21 21.0609 21.4214 22.0783 22.1716 22.8284C22.9217 23.5786 23.9391 24 25 24Z" fill="black"/>
</g>
<defs>
<clipPath id="clip0_4402_26959">
<rect width="24" height="24" fill="white" transform="translate(13 13)"/>
</clipPath>
</defs>
</svg>
