<svg width="26" height="22" viewBox="0 0 26 22" fill="none" xmlns="http://www.w3.org/2000/svg">
<path d="M26 11.2873C25.9438 16.6376 22.0104 21.1493 16.7037 21.8459C13.5113 22.2645 10.6849 21.3852 8.24457 19.285C7.77869 18.8842 7.65667 18.3259 7.88813 17.8179C8.10333 17.3461 8.60397 17.0266 9.11497 17.1198C9.39006 17.1701 9.68069 17.3098 9.89514 17.4903C11.6174 18.936 13.5897 19.5986 15.8356 19.4795C19.4502 19.288 22.6582 16.4905 23.3378 12.9216C24.2392 8.18957 21.123 3.80359 16.3443 3.15653C13.9528 2.83263 11.809 3.5004 9.9543 5.05483C9.61931 5.33584 9.26952 5.54512 8.81695 5.46599C8.3274 5.38021 7.97687 5.09994 7.83637 4.62074C7.68921 4.11788 7.81714 3.67122 8.21721 3.31626C9.48324 2.19444 10.9304 1.40317 12.5699 0.98535C18.5614 -0.54024 24.4515 3.11659 25.733 9.16719C25.8802 9.86159 25.9135 10.5804 26 11.2873Z" fill="#D02626"/>
<path d="M4.30809 10.0678C4.43972 10.0678 4.57135 10.0678 4.70299 10.0678C8.15276 10.0678 11.6025 10.0671 15.0516 10.07C15.2468 10.07 15.4502 10.0715 15.6358 10.1226C16.2074 10.2815 16.5831 10.8554 16.5106 11.4189C16.43 12.0416 15.9419 12.5015 15.3097 12.5104C14.3978 12.5237 13.486 12.5141 12.575 12.5141C9.95049 12.5141 7.32674 12.5141 4.70225 12.5141L4.2371 12.5141C4.34137 12.6369 4.40275 12.7189 4.47374 12.7907C4.94185 13.2632 5.424 13.7224 5.87953 14.2076C6.36464 14.7237 6.34098 15.4558 5.85143 15.9321C5.37149 16.3987 4.64974 16.4172 4.15501 15.9306C2.88159 14.6779 1.61853 13.4141 0.364333 12.1421C-0.120781 11.6504 -0.122261 10.9419 0.362113 10.4501C1.61483 9.17673 2.87642 7.91218 4.14762 6.65725C4.65048 6.16104 5.39368 6.18249 5.8714 6.66612C6.3506 7.15271 6.35873 7.87521 5.85957 8.3899C5.33748 8.92826 4.79173 9.44369 4.25633 9.96873C4.27334 10.0013 4.29034 10.0345 4.30735 10.0671L4.30809 10.0678Z" fill="#D02626"/>
</svg>
