<svg width="20" height="20" viewBox="0 0 20 20" fill="none" xmlns="http://www.w3.org/2000/svg">
<rect width="20" height="20" rx="7" transform="matrix(1 0 0 -1 0 20)" fill="white"/>
<path d="M9.67627 15.9014V14.8921C7.86719 14.8096 6.55322 13.8701 6.50879 12.2705H8.20361C8.31152 12.9307 8.78125 13.3813 9.67627 13.4639V11.1533L9.20654 11.0454C7.54346 10.6709 6.63574 9.92822 6.63574 8.55713C6.63574 7.02734 7.90527 6.03711 9.67627 5.94824V4.91992H10.311V5.94824C12.1011 6.06885 13.269 7.05908 13.3262 8.56982H11.6377C11.5488 7.87158 11.0474 7.47168 10.311 7.38281V9.61719L10.8062 9.7251C12.5454 10.1187 13.4531 10.8169 13.4531 12.207C13.4531 13.813 12.1392 14.7842 10.311 14.8921V15.9014H9.67627ZM8.41309 8.39209C8.41309 8.90625 8.7876 9.24268 9.67627 9.47119V7.37646C8.84473 7.45264 8.41309 7.87793 8.41309 8.39209ZM11.6821 12.4038C11.6821 11.8389 11.3267 11.5532 10.311 11.2993V13.4639C11.2251 13.394 11.6821 12.9878 11.6821 12.4038Z" fill="#1D54E4"/>
</svg>
