<svg width="50" height="50" viewBox="0 0 50 50" fill="none" xmlns="http://www.w3.org/2000/svg">
<rect width="50" height="50" rx="20" fill="#D5F0FF"/>
<rect width="50" height="50" rx="20" fill="white" fill-opacity="0.1"/>
<rect width="50" height="50" rx="20" fill="#00A3FF" fill-opacity="0.03"/>
<g clip-path="url(#clip0_4402_26951)">
<path d="M19.5 15H30.5C30.6552 15 30.8084 15.0361 30.9472 15.1056C31.0861 15.175 31.2069 15.2758 31.3 15.4L34 19V34C34 34.2652 33.8946 34.5196 33.7071 34.7071C33.5196 34.8946 33.2652 35 33 35H17C16.7348 35 16.4804 34.8946 16.2929 34.7071C16.1054 34.5196 16 34.2652 16 34V19L18.7 15.4C18.7931 15.2758 18.9139 15.175 19.0528 15.1056C19.1916 15.0361 19.3448 15 19.5 15ZM32 21H18V33H32V21ZM31.5 19L30 17H20L18.5 19H31.5ZM22 23V25C22 25.7956 22.3161 26.5587 22.8787 27.1213C23.4413 27.6839 24.2044 28 25 28C25.7956 28 26.5587 27.6839 27.1213 27.1213C27.6839 26.5587 28 25.7956 28 25V23H30V25C30 26.3261 29.4732 27.5979 28.5355 28.5355C27.5979 29.4732 26.3261 30 25 30C23.6739 30 22.4021 29.4732 21.4645 28.5355C20.5268 27.5979 20 26.3261 20 25V23H22Z" fill="#222222"/>
</g>
<defs>
<clipPath id="clip0_4402_26951">
<rect width="24" height="24" fill="white" transform="translate(13 13)"/>
</clipPath>
</defs>
</svg>
