<svg width="20" height="20" viewBox="0 0 20 20" fill="none" xmlns="http://www.w3.org/2000/svg">
<g clip-path="url(#clip0_2806_22116)">
<path d="M9.99935 18.3334C5.39685 18.3334 1.66602 14.6025 1.66602 10C1.66602 5.39752 5.39685 1.66669 9.99935 1.66669C14.6018 1.66669 18.3327 5.39752 18.3327 10C18.3327 14.6025 14.6018 18.3334 9.99935 18.3334ZM9.99935 16.6667C11.7675 16.6667 13.4632 15.9643 14.7134 14.7141C15.9636 13.4638 16.666 11.7681 16.666 10C16.666 8.23191 15.9636 6.53622 14.7134 5.28597C13.4632 4.03573 11.7675 3.33335 9.99935 3.33335C8.23124 3.33335 6.53555 4.03573 5.2853 5.28597C4.03506 6.53622 3.33268 8.23191 3.33268 10C3.33268 11.7681 4.03506 13.4638 5.2853 14.7141C6.53555 15.9643 8.23124 16.6667 9.99935 16.6667ZM9.16601 12.5H10.8327V14.1667H9.16601V12.5ZM10.8327 11.1292V11.6667H9.16601V10.4167C9.16601 10.1957 9.25381 9.98371 9.41009 9.82743C9.56637 9.67115 9.77833 9.58335 9.99935 9.58335C10.2361 9.58334 10.4679 9.5161 10.668 9.38946C10.868 9.26282 11.0279 9.08199 11.1292 8.86801C11.2304 8.65402 11.2688 8.41568 11.2399 8.18072C11.211 7.94576 11.116 7.72384 10.9659 7.54078C10.8158 7.35772 10.6168 7.22104 10.392 7.14666C10.1673 7.07228 9.92604 7.06324 9.69637 7.12061C9.46669 7.17797 9.25803 7.29938 9.09465 7.4707C8.93128 7.64202 8.81991 7.85621 8.77351 8.08835L7.13851 7.76085C7.23987 7.25426 7.47394 6.78366 7.81678 6.39717C8.15962 6.01069 8.59895 5.72217 9.08984 5.56112C9.58073 5.40007 10.1056 5.37226 10.6107 5.48053C11.1159 5.58881 11.5833 5.82928 11.965 6.17737C12.3468 6.52547 12.6293 6.96869 12.7836 7.46174C12.9379 7.95479 12.9586 8.47997 12.8434 8.98361C12.7282 9.48725 12.4814 9.95127 12.1281 10.3282C11.7748 10.7052 11.3278 10.9816 10.8327 11.1292Z" fill="#222222"/>
</g>
<defs>
<clipPath id="clip0_2806_22116">
<rect width="20" height="20" fill="white"/>
</clipPath>
</defs>
</svg>
