<svg width="23" height="19" viewBox="0 0 23 19" fill="none" xmlns="http://www.w3.org/2000/svg">
<path d="M4 7C4.26522 7 4.51957 7.10536 4.70711 7.29289C4.89464 7.48043 5 7.73478 5 8C6.57114 7.99769 8.09698 8.52627 9.33 9.5H11.5C12.833 9.5 14.03 10.08 14.854 11H18C18.9453 10.9997 19.8712 11.2674 20.6705 11.772C21.4698 12.2767 22.1097 12.9975 22.516 13.851C20.151 16.972 16.322 19 12 19C9.21 19 6.85 18.397 4.94 17.342C4.87004 17.5351 4.74224 17.7018 4.57402 17.8196C4.40579 17.9374 4.20534 18.0003 4 18H1C0.734784 18 0.48043 17.8946 0.292893 17.7071C0.105357 17.5196 0 17.2652 0 17V8C0 7.73478 0.105357 7.48043 0.292893 7.29289C0.48043 7.10536 0.734784 7 1 7H4ZM5.001 10L5 15.022L5.045 15.054C6.84 16.314 9.178 17 12 17C15.004 17 17.799 15.844 19.835 13.87L19.968 13.737L19.848 13.637C19.3758 13.2672 18.8034 13.0477 18.205 13.007L18 13H15.889C15.961 13.322 16 13.656 16 14V15H7V13L13.79 12.999L13.756 12.921C13.5644 12.5205 13.2696 12.1783 12.9019 11.9295C12.5343 11.6806 12.107 11.5341 11.664 11.505L11.5 11.5H8.57C8.10531 11.0247 7.55027 10.6472 6.93752 10.3896C6.32477 10.132 5.66669 9.99952 5.002 10H5.001ZM3 9H2V16H3V9ZM17 3C17.7956 3 18.5587 3.31607 19.1213 3.87868C19.6839 4.44129 20 5.20435 20 6C20 6.79565 19.6839 7.55871 19.1213 8.12132C18.5587 8.68393 17.7956 9 17 9C16.2044 9 15.4413 8.68393 14.8787 8.12132C14.3161 7.55871 14 6.79565 14 6C14 5.20435 14.3161 4.44129 14.8787 3.87868C15.4413 3.31607 16.2044 3 17 3ZM17 5C16.7348 5 16.4804 5.10536 16.2929 5.29289C16.1054 5.48043 16 5.73478 16 6C16 6.26522 16.1054 6.51957 16.2929 6.70711C16.4804 6.89464 16.7348 7 17 7C17.2652 7 17.5196 6.89464 17.7071 6.70711C17.8946 6.51957 18 6.26522 18 6C18 5.73478 17.8946 5.48043 17.7071 5.29289C17.5196 5.10536 17.2652 5 17 5ZM10 0C10.7956 0 11.5587 0.316071 12.1213 0.87868C12.6839 1.44129 13 2.20435 13 3C13 3.79565 12.6839 4.55871 12.1213 5.12132C11.5587 5.68393 10.7956 6 10 6C9.20435 6 8.44129 5.68393 7.87868 5.12132C7.31607 4.55871 7 3.79565 7 3C7 2.20435 7.31607 1.44129 7.87868 0.87868C8.44129 0.316071 9.20435 0 10 0ZM10 2C9.73478 2 9.48043 2.10536 9.29289 2.29289C9.10536 2.48043 9 2.73478 9 3C9 3.26522 9.10536 3.51957 9.29289 3.70711C9.48043 3.89464 9.73478 4 10 4C10.2652 4 10.5196 3.89464 10.7071 3.70711C10.8946 3.51957 11 3.26522 11 3C11 2.73478 10.8946 2.48043 10.7071 2.29289C10.5196 2.10536 10.2652 2 10 2Z" fill="#222222"/>
</svg>
