<svg width="20" height="20" viewBox="0 0 20 20" fill="none" xmlns="http://www.w3.org/2000/svg">
<g id="Frame" clip-path="url(#clip0_5801_30849)">
<path id="Vector" d="M4.16927 7.50033C4.39028 7.50033 4.60225 7.58812 4.75853 7.7444C4.91481 7.90068 5.0026 8.11265 5.0026 8.33366C6.31189 8.33173 7.58342 8.77222 8.61094 9.58366H10.4193C11.5301 9.58366 12.5276 10.067 13.2143 10.8337H15.8359C16.6237 10.8334 17.3953 11.0565 18.0614 11.477C18.7275 11.8975 19.2607 12.4982 19.5993 13.2095C17.6284 15.8103 14.4376 17.5003 10.8359 17.5003C8.51094 17.5003 6.54427 16.9978 4.9526 16.1187C4.89431 16.2795 4.7878 16.4185 4.64762 16.5167C4.50743 16.6148 4.34039 16.6673 4.16927 16.667H1.66927C1.44826 16.667 1.2363 16.5792 1.08002 16.4229C0.923735 16.2666 0.835938 16.0547 0.835938 15.8337V8.33366C0.835937 8.11265 0.923735 7.90068 1.08002 7.7444C1.2363 7.58812 1.44826 7.50033 1.66927 7.50033H4.16927ZM5.00344 10.0003L5.0026 14.1853L5.0401 14.212C6.53594 15.262 8.48427 15.8337 10.8359 15.8337C13.3393 15.8337 15.6684 14.8703 17.3651 13.2253L17.4759 13.1145L17.3759 13.0312C16.9824 12.723 16.5054 12.5401 16.0068 12.5062L15.8359 12.5003H14.0768C14.1368 12.7687 14.1693 13.047 14.1693 13.3337V14.167H6.66927V12.5003L12.3276 12.4995L12.2993 12.4345C12.1396 12.1008 11.8939 11.8156 11.5875 11.6082C11.2812 11.4008 10.9251 11.2787 10.5559 11.2545L10.4193 11.2503H7.9776C7.59036 10.8543 7.12783 10.5396 6.61721 10.325C6.10658 10.1103 5.55818 9.99993 5.00427 10.0003H5.00344ZM3.33594 9.16699H2.5026V15.0003H3.33594V9.16699ZM15.0026 4.16699C15.6656 4.16699 16.3015 4.43038 16.7704 4.89923C17.2392 5.36807 17.5026 6.00395 17.5026 6.66699C17.5026 7.33003 17.2392 7.96592 16.7704 8.43476C16.3015 8.9036 15.6656 9.16699 15.0026 9.16699C14.3396 9.16699 13.7037 8.9036 13.2348 8.43476C12.766 7.96592 12.5026 7.33003 12.5026 6.66699C12.5026 6.00395 12.766 5.36807 13.2348 4.89923C13.7037 4.43038 14.3396 4.16699 15.0026 4.16699ZM15.0026 5.83366C14.7816 5.83366 14.5696 5.92146 14.4133 6.07774C14.2571 6.23402 14.1693 6.44598 14.1693 6.66699C14.1693 6.88801 14.2571 7.09997 14.4133 7.25625C14.5696 7.41253 14.7816 7.50033 15.0026 7.50033C15.2236 7.50033 15.4356 7.41253 15.5919 7.25625C15.7481 7.09997 15.8359 6.88801 15.8359 6.66699C15.8359 6.44598 15.7481 6.23402 15.5919 6.07774C15.4356 5.92146 15.2236 5.83366 15.0026 5.83366ZM9.16927 1.66699C9.83231 1.66699 10.4682 1.93038 10.937 2.39923C11.4059 2.86807 11.6693 3.50395 11.6693 4.16699C11.6693 4.83003 11.4059 5.46592 10.937 5.93476C10.4682 6.4036 9.83231 6.66699 9.16927 6.66699C8.50623 6.66699 7.87034 6.4036 7.4015 5.93476C6.93266 5.46592 6.66927 4.83003 6.66927 4.16699C6.66927 3.50395 6.93266 2.86807 7.4015 2.39923C7.87034 1.93038 8.50623 1.66699 9.16927 1.66699V1.66699ZM9.16927 3.33366C8.94826 3.33366 8.73629 3.42146 8.58001 3.57774C8.42373 3.73402 8.33594 3.94598 8.33594 4.16699C8.33594 4.38801 8.42373 4.59997 8.58001 4.75625C8.73629 4.91253 8.94826 5.00033 9.16927 5.00033C9.39028 5.00033 9.60225 4.91253 9.75853 4.75625C9.91481 4.59997 10.0026 4.38801 10.0026 4.16699C10.0026 3.94598 9.91481 3.73402 9.75853 3.57774C9.60225 3.42146 9.39028 3.33366 9.16927 3.33366V3.33366Z" fill="#1E1E1E"/>
</g>
<defs>
<clipPath id="clip0_5801_30849">
<rect width="20" height="20" fill="white"/>
</clipPath>
</defs>
</svg>
