<svg width="30" height="28" viewBox="0 0 30 28" fill="none" xmlns="http://www.w3.org/2000/svg">
<path d="M0 9.55555H28.5C28.8978 9.55555 29.2794 9.71163 29.5607 9.98946C29.842 10.2673 30 10.6441 30 11.037V25.8518C30 26.2448 29.842 26.6216 29.5607 26.8994C29.2794 27.1772 28.8978 27.3333 28.5 27.3333H1.5C1.10218 27.3333 0.720644 27.1772 0.43934 26.8994C0.158035 26.6216 0 26.2448 0 25.8518V9.55555ZM1.5 0.666656H24V6.59258H0V2.14814C0 1.75522 0.158035 1.3784 0.43934 1.10057C0.720644 0.822741 1.10218 0.666656 1.5 0.666656ZM19.5 16.963V19.9259H24V16.963H19.5Z" fill="#1D55E4"/>
</svg>
